<svg xmlns="http://www.w3.org/2000/svg" height="40" width="40" style=""><rect id="backgroundrect" width="100%" height="100%" x="0" y="0" fill="none" stroke="none"/><g class="currentLayer" style=""><title>Layer 1</title><path d="M3,35.95604395866394 q-1.2,0 -2.1,-0.9 Q5.551115123125783e-17,34.15604395866394 5.551115123125783e-17,32.95604395866394 V6.95604395866394 q0,-1.2 0.9,-2.1 Q1.7999999999999998,3.9560439586639404 3,3.9560439586639404 h34 q1.2,0 2.1,0.9 q0.9,0.9 0.9,2.1 v26 q0,1.2 -0.9,2.1 q-0.9,0.9 -2.1,0.9 zm0,-3 h9.35 V6.95604395866394 H3 v26 zm12.35,0 h9.3 V6.95604395866394 h-9.3 zm12.3,0 H37 V6.95604395866394 h-9.35 zm-12.3,-26 v26 z" id="svg_1" class="" fill-opacity="1" fill="#ffeb3b"/></g></svg>